<?xml version="1.0" encoding="utf-8"?>
<!-- Generator: Adobe Illustrator 22.1.0, SVG Export Plug-In . SVG Version: 6.00 Build 0)  -->
<svg version="1.1" id="Layer_1" xmlns="http://www.w3.org/2000/svg" xmlns:xlink="http://www.w3.org/1999/xlink" x="0px" y="0px"
	 viewBox="0 0 210 72" style="enable-background:new 0 0 210 72;" xml:space="preserve">
<style type="text/css">
	.st0{fill:#B7B6B1;}
	.st1{filter:url(#Adobe_OpacityMaskFilter);}
	.st2{fill:#FFFFFF;}
	.st3{mask:url(#mask-2_1_);fill:#B7B6B1;}
	.st4{filter:url(#Adobe_OpacityMaskFilter_1_);}
	.st5{mask:url(#mask-4_1_);fill:#B7B6B1;}
	.st6{filter:url(#Adobe_OpacityMaskFilter_2_);}
	.st7{mask:url(#mask-6_1_);fill:#B7B6B1;}
	.st8{filter:url(#Adobe_OpacityMaskFilter_3_);}
	.st9{mask:url(#mask-8_1_);fill:#B7B6B1;}
	.st10{filter:url(#Adobe_OpacityMaskFilter_4_);}
	.st11{mask:url(#mask-8_2_);fill:#B7B6B1;}
	.st12{filter:url(#Adobe_OpacityMaskFilter_5_);}
	.st13{mask:url(#mask-8_3_);fill:#B7B6B1;}
</style>
<title>Group 30</title>
<g id="_x26A1__xFE0F_-UI-Kit">
	<g id="Home-Desktop" transform="translate(-202.000000, -921.000000)">
		<g id="Group-30" transform="translate(202.500000, 921.000000)">
			<path id="Fill-1" class="st0" d="M123.3,49.4c0.2,4.6-1.7,8.1-5.2,10.9c-1.4,1.1-3.1,1.7-4.9,1.8c-2,0.2-4,0.1-6-0.5
				c-3.7-1.1-6.1-3.4-7.6-6.9c-0.9-2-1.2-4.2-1-6.3c0.6-4.8,3.1-8.3,7.6-10.2c1.5-0.7,3.1-0.8,4.8-0.8c2.2,0,4.2,0.5,6.3,1.1
				c1.9,0.5,3.4,1.6,4.7,2.9c-1.1,1.1-2.1,2.1-3.3,3.2c-0.5-0.4-1-1-1.7-1.5c-1.4-0.9-2.8-1.4-4.4-1.6c-2.8-0.3-5.2,0.6-7.1,2.7
				c-2.6,2.9-2.7,6.9-0.6,10c1.5,2.2,3.6,3.1,6.1,3.4c2.5,0.3,4.5-0.4,6.2-2.2c0.5-0.5,0.8-1,1.1-1.7h-6.9v-4.3
				C112.7,49.2,122.6,49.2,123.3,49.4"/>
			<path id="Fill-3" class="st0" d="M161,56.6c-0.9,0.7-2,1-3.1,1c-0.9,0-1.8,0-2.7-0.2c-3.2-0.6-5.9-4-5.8-7.3c0-0.1,0-0.3,0-0.4
				c0-1.7,0.3-3.4,1.3-4.8c1.5-2,3.4-3.1,5.9-3.3c4.6-0.4,7.5,3.5,8,6.6C165.1,51.7,163.9,54.5,161,56.6 M168.7,45.8
				c-1.2-4-3.8-6.8-7.8-8.2c-1.9-0.7-3.8-0.7-5.8-0.4c-2.4,0.4-4.7,1.3-6.5,3.1c-3.4,3.3-4.6,7.4-3.6,12c1.1,5.4,6.1,9.9,12,9.7
				c0.7,0,1.4,0,2.1-0.1c3-0.6,5.6-2,7.5-4.5C169.2,53.9,170,50,168.7,45.8"/>
			<path id="Fill-5" class="st0" d="M52.5,37.6H57v8.8h7.9v-8.7c0.8-0.2,1.6-0.1,2.3-0.1c0.7,0,1.4,0,2.2,0
				c0.2,0.9,0.3,17.8,0.1,23.7c-0.7,0.2-1.5,0.1-2.2,0.1c-0.7,0-1.4,0-2.2,0c-0.2-0.9-0.1-1.7-0.1-2.6c0-0.9,0-1.8,0-2.7v-2.6V51
				h-7.9v10.3h-4.5V37.6z"/>
			<path id="Fill-7" class="st0" d="M136.7,46.2c-0.6,0.4-1.2,0.6-1.9,0.7c-0.9,0.1-1.8,0-2.8,0c0-1.6,0-3,0-4.4
				c0-0.1,0-0.2,0.1-0.4c1.3,0,2.5-0.1,3.8,0.2c1,0.3,1.4,1.1,1.5,2C137.5,45,137.4,45.8,136.7,46.2 M137.1,50.9
				c0.3-0.2,0.6-0.3,0.8-0.4c1.1-0.5,2-1.2,2.6-2.2c1.7-2.9,1.2-6.5-1-8.9c-0.5-0.6-1.2-1-2-1.2c-1.2-0.3-2.4-0.5-3.7-0.5
				c-1.9,0-3.8,0-5.7,0c-0.3,0-0.5-0.1-0.8,0.1v23.6h4.5v-5.1c0-0.8,0-1.6,0-2.5c0-0.8-0.1-1.7,0.1-2.5c0.5-0.1,0.5,0.3,0.7,0.5
				c1.7,3.1,3.4,6.3,5.1,9.5h5C140.7,57.8,138.9,54.3,137.1,50.9"/>
			<path id="Fill-9" class="st0" d="M172.9,37.6h4.4c0.2,0.3,0.1,0.6,0.1,1c0,4.9,0,9.8,0,14.7c0,0.8,0.1,1.5,0.4,2.3
				c0.4,1.3,1.6,1.9,2.9,1.9c0.9,0,1.8-0.2,2.5-0.7c0.6-0.4,1-1,1.2-1.8c0.2-1.1,0.4-2.2,0.4-3.3c0-4.4,0-8.8,0-13.2
				c0-0.3-0.1-0.7,0.1-1h4.3c0.2,0.2,0.1,0.5,0.1,0.7c0,4.8,0,9.6,0,14.4c0,1.3-0.2,2.6-0.4,3.8c-0.1,0.7-0.5,1.3-0.9,1.8
				c-1.1,1.4-2.3,2.6-4.2,3.1c-3.1,0.8-5.9,0.3-8.4-1.6c-1.3-1-1.9-2.4-2.2-4c-0.3-1.4-0.4-2.9-0.4-4.3c0-4.4,0-8.9,0-13.3V37.6z"/>
			<g id="Group-13" transform="translate(193.368821, 37.451863)">
				<g id="Clip-12">
				</g>
				<defs>
					<filter id="Adobe_OpacityMaskFilter" filterUnits="userSpaceOnUse" x="0.1" y="0.1" width="14.2" height="23.9">
						<feColorMatrix  type="matrix" values="1 0 0 0 0  0 1 0 0 0  0 0 1 0 0  0 0 0 1 0"/>
					</filter>
				</defs>
				<mask maskUnits="userSpaceOnUse" x="0.1" y="0.1" width="14.2" height="23.9" id="mask-2_1_">
					<g class="st1">
						<polygon id="path-1_1_" class="st2" points="0.1,0.1 14.3,0.1 14.3,24.1 0.1,24.1 						"/>
					</g>
				</mask>
				<path id="Fill-11" class="st3" d="M8.2,9.3C7,9.6,5.9,9.4,4.7,9.4c0-1.6,0-3.1,0.2-4.7c1,0.1,2-0.3,3.1,0c1,0.3,1.9,1.1,2,1.9
					C10.1,7.8,9.4,9,8.2,9.3 M13.5,3.6c-0.8-1.6-2-2.6-3.7-3C8.6,0.4,7.3,0.2,6.1,0.2c-1.8,0-3.6,0-5.3,0c-0.2,0-0.5-0.1-0.6,0.1
					v23.8H5V14c0.8-0.1,1.6-0.1,2.3-0.2c1.1-0.1,2.2-0.1,3.2-0.6c1.1-0.5,2.2-1.1,2.7-2.2C14.6,8.6,14.7,6.1,13.5,3.6"/>
			</g>
			<path id="Fill-14" class="st0" d="M86.8,46.3v4.3h-7c-0.1,0.1-0.1,0.1-0.2,0.1c0,0,0,0.1,0,0.1c0,0.1,0,0.2,0,0.3
				c0,3.4,0,6.8,0,10.2c-0.7,0.2-3.4,0.2-4.5,0.1V37.8c0.6-0.2,10.6-0.2,11.8,0v4.2C86,42,85.2,41.9,84.4,42c-0.8,0-1.6,0-2.4,0
				h-2.5v4.3H86.8z"/>
			<path id="Fill-16" class="st0" d="M36.3,1.1c0.4,0.1,0.7,0.4,0.9,0.7c2.4,2.4,4.9,4.8,7.3,7.2c0.5,0.5,1,1,1.6,1.5v14.1
				c0.3,0.2,0.6,0.1,0.8,0.1c4.1,0,8.2,0,12.3,0c0.7,0,1.2,0.2,1.7,0.7c1.6,1.7,3.3,3.2,4.9,4.9c1.3,1.4,2.6,2.7,4,4H36.3V1.1z"/>
			<path id="Fill-18" class="st0" d="M33.2,71c-3.2-3.3-6.4-6.5-9.5-9.7V47.4H9.7c-3.3-3.3-6.5-6.5-9.7-9.6c0.7-0.2,31.7-0.2,33.2,0
				V71z"/>
			<g id="Group-22" transform="translate(23.330798, 0.280760)">
				<g id="Clip-21">
				</g>
				<defs>
					<filter id="Adobe_OpacityMaskFilter_1_" filterUnits="userSpaceOnUse" x="0.4" y="0.1" width="9.5" height="34.1">
						<feColorMatrix  type="matrix" values="1 0 0 0 0  0 1 0 0 0  0 0 1 0 0  0 0 0 1 0"/>
					</filter>
				</defs>
				<mask maskUnits="userSpaceOnUse" x="0.4" y="0.1" width="9.5" height="34.1" id="mask-4_1_">
					<g class="st4">
						<polygon id="path-3_1_" class="st2" points="0.4,0.1 9.9,0.1 9.9,34.2 0.4,34.2 						"/>
					</g>
				</mask>
				<path id="Fill-20" class="st5" d="M0.4,9.9c3.1-3.2,6.3-6.4,9.5-9.7v34.1H0.4V9.9z"/>
			</g>
			<g id="Group-25" transform="translate(35.984791, 37.451863)">
				<g id="Clip-24">
				</g>
				<defs>
					<filter id="Adobe_OpacityMaskFilter_2_" filterUnits="userSpaceOnUse" x="0.3" y="0.1" width="9.7" height="33.5">
						<feColorMatrix  type="matrix" values="1 0 0 0 0  0 1 0 0 0  0 0 1 0 0  0 0 0 1 0"/>
					</filter>
				</defs>
				<mask maskUnits="userSpaceOnUse" x="0.3" y="0.1" width="9.7" height="33.5" id="mask-6_1_">
					<g class="st6">
						<polygon id="path-5_1_" class="st2" points="0.3,0.1 10,0.1 10,33.6 0.3,33.6 						"/>
					</g>
				</mask>
				<path id="Fill-23" class="st7" d="M0.3,33.6V0.3c0.8-0.2,5.8-0.2,9.5-0.1c0.2,0.8,0.3,21.1,0.1,24C6.7,27.2,3.6,30.4,0.3,33.6"
					/>
			</g>
			<g id="Clip-27">
			</g>
			<defs>
				<filter id="Adobe_OpacityMaskFilter_3_" filterUnits="userSpaceOnUse" x="10.6" y="11.9" width="9.8" height="22.5">
					<feColorMatrix  type="matrix" values="1 0 0 0 0  0 1 0 0 0  0 0 1 0 0  0 0 0 1 0"/>
				</filter>
			</defs>
			<mask maskUnits="userSpaceOnUse" x="10.6" y="11.9" width="9.8" height="22.5" id="mask-8_1_">
				<g class="st8">
					<polygon id="path-7_1_" class="st2" points="0,71.1 207.7,71.1 207.7,0.4 0,0.4 					"/>
				</g>
			</mask>
			<polygon id="Fill-26" class="st9" points="10.6,34.5 20.4,34.5 20.4,11.9 10.6,11.9 			"/>
			<defs>
				<filter id="Adobe_OpacityMaskFilter_4_" filterUnits="userSpaceOnUse" x="49.2" y="13.5" width="8.3" height="8.3">
					<feColorMatrix  type="matrix" values="1 0 0 0 0  0 1 0 0 0  0 0 1 0 0  0 0 0 1 0"/>
				</filter>
			</defs>
			<mask maskUnits="userSpaceOnUse" x="49.2" y="13.5" width="8.3" height="8.3" id="mask-8_2_">
				<g class="st10">
					<polygon id="path-7_2_" class="st2" points="0,71.1 207.7,71.1 207.7,0.4 0,0.4 					"/>
				</g>
			</mask>
			<path id="Fill-28" class="st11" d="M49.2,21.8v-8.1c0.7-0.2,5.4-0.2,8.1-0.1c0.2,0.7,0.2,6.1,0.1,8.2H49.2z"/>
			<defs>
				<filter id="Adobe_OpacityMaskFilter_5_" filterUnits="userSpaceOnUse" x="12.7" y="50.4" width="7.9" height="8">
					<feColorMatrix  type="matrix" values="1 0 0 0 0  0 1 0 0 0  0 0 1 0 0  0 0 0 1 0"/>
				</filter>
			</defs>
			<mask maskUnits="userSpaceOnUse" x="12.7" y="50.4" width="7.9" height="8" id="mask-8_3_">
				<g class="st12">
					<polygon id="path-7_3_" class="st2" points="0,71.1 207.7,71.1 207.7,0.4 0,0.4 					"/>
				</g>
			</mask>
			<path id="Fill-29" class="st13" d="M20.6,50.4v8h-7.8c-0.2-0.7-0.2-6.6-0.1-8H20.6z"/>
		</g>
	</g>
</g>
</svg>
